<svg width="12" height="13" viewBox="0 0 12 13" fill="none" xmlns="http://www.w3.org/2000/svg">
<path d="M6 0.5C2.6863 0.5 0 3.1863 0 6.5C0 9.8137 2.6863 12.5 6 12.5C9.3137 12.5 12 9.81372 12 6.5C12 3.18628 9.3137 0.5 6 0.5ZM6.99999 10.3442C6.99999 10.5705 6.8165 10.754 6.59017 10.754H5.46579C5.23946 10.754 5.05596 10.5705 5.05596 10.3442V5.78201C5.05596 5.55568 5.23943 5.37218 5.46579 5.37218H6.59017C6.8165 5.37218 6.99999 5.55565 6.99999 5.78201V10.3442ZM6 4.59565C5.43811 4.59565 4.98261 4.14015 4.98261 3.57826C4.98261 3.01637 5.43811 2.56087 6 2.56087C6.56189 2.56087 7.01739 3.01637 7.01739 3.57826C7.01739 4.14015 6.56189 4.59565 6 4.59565Z" fill="#0F2830"/>
</svg>
