<svg width="20" height="21" viewBox="0 0 20 21" fill="none" xmlns="http://www.w3.org/2000/svg">
<g clip-path="url(#clip0_1_1798)">
<rect x="0.592224" y="0.99353" width="12.3382" height="12.437" fill="#1DC9D4"/>
<rect x="7.20551" y="7.70557" width="12.3382" height="12.437" fill="#1DC9D4"/>
<path d="M19.6152 7.03838H13.4614V0.884657C13.4614 0.672242 13.2894 0.5 13.0768 0.5H0.384657C0.172045 0.5 0 0.672242 0 0.884657V13.5769C0 13.7893 0.172045 13.9615 0.384657 13.9615H6.53848V20.1153C6.53848 20.3278 6.71053 20.5 6.92314 20.5H19.6153C19.828 20.5 20 20.3278 20 20.1153V7.42304C19.9999 7.21062 19.8279 7.03838 19.6152 7.03838ZM6.92304 7.03838C6.71043 7.03838 6.53838 7.21062 6.53838 7.42304V13.1922H0.769216V1.26922H12.6922V7.03838H6.92304ZM9.84069 13.1923H7.3076V7.8076L12.6922 7.70554V13.1922L9.84069 13.1923ZM7.3076 19.7307V13.9615H13.0768C13.2894 13.9615 13.4614 13.7893 13.4614 13.5769V7.8076H19.2306V19.7307H7.3076Z" fill="black"/>
</g>
<defs>
<clipPath id="clip0_1_1798">
<rect width="20" height="20" fill="white" transform="translate(0 0.5)"/>
</clipPath>
</defs>
</svg>
